# xmcd
#
# Track frame offsets:
#	150
#	28401
#	38650
#	51355
#	63483
#	76481
#	86848
#	120621
#	134774
#	144810
#	156188
#	175685
#	189561
#	200608
#
# Disc length: 2967 seconds
#
# Revision: 1
# Processed by: cddbd v1.5.1PL2 Copyright (c) Steve Scherf et al.
# Submitted via: audiograbber 1.83.01
#
DISCID=c90b950e
DTITLE=Ray Charles - Live
DYEAR=1900
DGENRE=
TTITLE0=I Got a Woman
TTITLE1=Ain't That Fine
TTITLE2=Baby Won't You Please Come Home
TTITLE3=Tell Me How Do You Feel
TTITLE4=Don't Put All Your Dreams in One Basket
TTITLE5=Sitting on Top of the World
TTITLE6=Georgia on My Mind
TTITLE7=Blues Is MY Middle Name
TTITLE8=I'm Movin' On
TTITLE9=She's on the Ball
TTITLE10=Talkin' 'Bout You
TTITLE11=This Love of Mine
TTITLE12=You Be My Baby
TTITLE13=What'd I Say
EXTD=
EXTT0=
EXTT1=
EXTT2=
EXTT3=
EXTT4=
EXTT5=
EXTT6=
EXTT7=
EXTT8=
EXTT9=
EXTT10=
EXTT11=
EXTT12=
EXTT13=
PLAYORDER=
